<?xml version="1.0" encoding="utf-8"?>
<!-- Generator: Adobe Illustrator 25.0.0, SVG Export Plug-In . SVG Version: 6.00 Build 0)  -->
<svg version="1.1" id="Layer_1" xmlns="http://www.w3.org/2000/svg" xmlns:xlink="http://www.w3.org/1999/xlink" x="0px" y="0px"
	 viewBox="0 0 100 125" style="enable-background:new 0 0 100 125;" xml:space="preserve">
<g>
	<path d="M94.7,72l-0.3-43.7l-0.4-0.8L50,2h-0.4h-0.4l-44,25.6l-0.4,0.7L5.1,72l0.3,0.5l44,25.5h0.8l44.2-25.4L94.7,72z M77.7,61.7
		L64.3,54l0.5-31.6l13.4,7.8L77.7,61.7z M93.1,70.6l-14.3-8.3l0.5-32.5L79,29.3l-14.5-8.4l-0.8,0.5l-0.7,32l-13-7.4V4.2l42.5,24.5
		L93.1,70.6z M49,4.2v41.9l-14.6,8.5l-27.6,16L6.5,28.8L49,4.2z M49.8,96.6L7.5,72.1l3.8-2.2l38.4-22.3l39,22.5l3.5,2L49.8,96.6z"/>
	<path d="M21.8,48.6l16-9.5l0.2-0.5V22.5L37.2,22l-16,9.5L21,31.9v16.2L21.8,48.6z M22,32.2l15-8.8v15l-15,8.8V32.2z"/>
</g>
</svg>
